<?xml version="1.0" encoding="UTF-8"?>
<svg xmlns="http://www.w3.org/2000/svg" version="1.1" width="150" height="150" viewBox="0 0 150 150"><rect x="0" y="0" width="150" height="150" fill="#ffffff"/><g transform="scale(4.545)"><g transform="translate(4.000,4.000)"><path fill-rule="evenodd" d="M10 0L10 1L8 1L8 3L9 3L9 4L8 4L8 8L6 8L6 9L5 9L5 10L4 10L4 8L3 8L3 9L2 9L2 8L0 8L0 9L1 9L1 10L0 10L0 13L1 13L1 12L2 12L2 11L1 11L1 10L3 10L3 13L4 13L4 14L3 14L3 16L2 16L2 15L1 15L1 14L0 14L0 15L1 15L1 16L0 16L0 17L4 17L4 15L5 15L5 17L8 17L8 19L9 19L9 21L8 21L8 22L9 22L9 21L10 21L10 24L9 24L9 23L8 23L8 25L11 25L11 24L12 24L12 25L14 25L14 24L15 24L15 23L14 23L14 24L13 24L13 22L14 22L14 21L15 21L15 22L17 22L17 21L18 21L18 22L19 22L19 21L20 21L20 22L21 22L21 24L20 24L20 23L19 23L19 24L20 24L20 25L21 25L21 24L23 24L23 25L25 25L25 22L24 22L24 23L23 23L23 22L22 22L22 21L24 21L24 20L25 20L25 18L23 18L23 19L22 19L22 18L21 18L21 16L20 16L20 15L22 15L22 14L23 14L23 15L24 15L24 13L25 13L25 11L24 11L24 12L22 12L22 14L21 14L21 13L20 13L20 12L21 12L21 11L23 11L23 10L24 10L24 8L22 8L22 9L23 9L23 10L21 10L21 11L20 11L20 12L19 12L19 10L18 10L18 9L21 9L21 8L18 8L18 9L17 9L17 11L16 11L16 12L17 12L17 11L18 11L18 12L19 12L19 14L18 14L18 15L17 15L17 13L16 13L16 17L15 17L15 16L14 16L14 15L15 15L15 14L12 14L12 13L13 13L13 12L14 12L14 11L13 11L13 10L14 10L14 8L15 8L15 6L14 6L14 8L12 8L12 7L13 7L13 5L14 5L14 4L15 4L15 5L17 5L17 3L16 3L16 1L17 1L17 0L16 0L16 1L15 1L15 0L14 0L14 1L13 1L13 3L12 3L12 7L11 7L11 4L10 4L10 3L9 3L9 2L11 2L11 0ZM14 2L14 3L13 3L13 4L14 4L14 3L15 3L15 2ZM9 5L9 8L8 8L8 9L10 9L10 10L7 10L7 9L6 9L6 10L7 10L7 11L6 11L6 12L7 12L7 11L8 11L8 12L9 12L9 13L10 13L10 15L11 15L11 13L10 13L10 12L9 12L9 11L11 11L11 8L10 8L10 5ZM16 6L16 8L17 8L17 6ZM4 11L4 12L5 12L5 11ZM5 13L5 15L6 15L6 16L8 16L8 13ZM6 14L6 15L7 15L7 14ZM19 14L19 15L20 15L20 14ZM12 15L12 16L11 16L11 17L10 17L10 16L9 16L9 18L11 18L11 20L12 20L12 21L14 21L14 20L16 20L16 19L15 19L15 17L14 17L14 20L12 20L12 19L13 19L13 18L12 18L12 16L13 16L13 15ZM24 16L24 17L25 17L25 16ZM17 17L17 20L20 20L20 17ZM18 18L18 19L19 19L19 18ZM21 20L21 21L22 21L22 20ZM11 22L11 23L12 23L12 22ZM17 23L17 25L18 25L18 23ZM0 0L0 7L7 7L7 0ZM1 1L1 6L6 6L6 1ZM2 2L2 5L5 5L5 2ZM25 0L18 0L18 7L25 7ZM24 1L19 1L19 6L24 6ZM23 2L20 2L20 5L23 5ZM0 25L7 25L7 18L0 18ZM1 24L6 24L6 19L1 19ZM2 23L5 23L5 20L2 20Z" fill="#000000"/></g></g></svg>
